<svg width="65" height="65" viewBox="0 0 65 65" fill="none" xmlns="http://www.w3.org/2000/svg">
<rect width="65" height="65" rx="32.5" fill="#88AACB"/>
<path d="M30.75 43C30.75 43.6904 31.3096 44.25 32 44.25C32.6904 44.25 33.25 43.6904 33.25 43L32 43L30.75 43ZM32.8839 22.1161C32.3957 21.628 31.6043 21.628 31.1161 22.1161L23.1612 30.0711C22.673 30.5592 22.673 31.3507 23.1612 31.8388C23.6493 32.327 24.4408 32.327 24.9289 31.8388L32 24.7678L39.0711 31.8388C39.5592 32.327 40.3507 32.327 40.8388 31.8388C41.327 31.3507 41.327 30.5592 40.8388 30.0711L32.8839 22.1161ZM32 43L33.25 43L33.25 23L32 23L30.75 23L30.75 43L32 43Z" fill="white"/>
</svg>
