<svg width="80" height="80" viewBox="0 0 80 80" fill="none" xmlns="http://www.w3.org/2000/svg">
<rect width="80" height="80" rx="40" fill="#49507C"/>
<path d="M40 39.2C38.46 39.2 37.1417 38.6517 36.0452 37.5552C34.9484 36.4584 34.4 35.14 34.4 33.6C34.4 32.06 34.9484 30.7417 36.0452 29.6452C37.1417 28.5484 38.46 28 40 28C41.54 28 42.8583 28.5484 43.9548 29.6452C45.0516 30.7417 45.6 32.06 45.6 33.6C45.6 35.14 45.0516 36.4584 43.9548 37.5552C42.8583 38.6517 41.54 39.2 40 39.2ZM28 51.3848V47.8276C28 47.0441 28.2128 46.3185 28.6384 45.6508C29.064 44.9831 29.6328 44.4697 30.3448 44.1108C31.9261 43.3356 33.5215 42.7541 35.1308 42.3664C36.7401 41.9787 38.3632 41.7848 40 41.7848C41.6368 41.7848 43.2599 41.9787 44.8692 42.3664C46.4785 42.7541 48.0739 43.3356 49.6552 44.1108C50.3672 44.4697 50.936 44.9831 51.3616 45.6508C51.7872 46.3185 52 47.0441 52 47.8276V51.3848H28Z" fill="white"/>
</svg>
