<svg width="20" height="21" viewBox="0 0 20 21" fill="none" xmlns="http://www.w3.org/2000/svg">
<mask id="mask0_2_159" style="mask-type:alpha" maskUnits="userSpaceOnUse" x="0" y="0" width="20" height="21">
<rect y="0.5" width="20" height="20" fill="#D9D9D9"/>
</mask>
<g mask="url(#mask0_2_159)">
<path d="M10.5415 9.95529V6.04175C10.5415 5.88828 10.49 5.75959 10.3869 5.65571C10.2839 5.55196 10.1562 5.50008 10.004 5.50008C9.85164 5.50008 9.72261 5.55196 9.61692 5.65571C9.51109 5.75959 9.45817 5.88828 9.45817 6.04175V10.1476C9.45817 10.2456 9.47637 10.3337 9.51275 10.4117C9.549 10.4898 9.59921 10.5609 9.66338 10.6251L12.5559 13.5178C12.6734 13.6353 12.8021 13.6919 12.9421 13.6876C13.0821 13.6833 13.2125 13.6208 13.3332 13.5001C13.4539 13.3794 13.5142 13.2504 13.5142 13.113C13.5142 12.9758 13.4515 12.8451 13.3261 12.7209L10.5415 9.95529ZM10.0013 18.0834C8.95671 18.0834 7.97477 17.8861 7.05546 17.4913C6.1363 17.0966 5.33081 16.5535 4.639 15.862C3.9472 15.1704 3.4038 14.3642 3.0088 13.4434C2.61393 12.5227 2.4165 11.5389 2.4165 10.492C2.4165 9.44501 2.61387 8.46064 3.00859 7.53883C3.40331 6.61703 3.94643 5.81369 4.63796 5.12883C5.32949 4.44397 6.13567 3.90404 7.0565 3.50904C7.9772 3.11418 8.96102 2.91675 10.008 2.91675C11.0549 2.91675 12.0393 3.11578 12.9611 3.51383C13.883 3.91189 14.685 4.4521 15.3669 5.13446C16.0489 5.81682 16.5887 6.61925 16.9865 7.54175C17.3843 8.46425 17.5832 9.44987 17.5832 10.4986C17.5832 11.5432 17.3858 12.5252 16.9911 13.4445C16.5964 14.3636 16.0567 15.1691 15.3721 15.8609C14.6875 16.5527 13.8837 17.0961 12.9605 17.4911C12.0373 17.886 11.0509 18.0834 10.0013 18.0834ZM10.0098 17.0001C11.808 17.0001 13.3393 16.3647 14.6036 15.0938C15.8678 13.823 16.4998 12.2884 16.4998 10.4901C16.4998 8.69189 15.8678 7.16064 14.6036 5.89633C13.3393 4.63217 11.808 4.00008 10.0098 4.00008C8.2115 4.00008 6.67692 4.63217 5.40609 5.89633C4.13525 7.16064 3.49984 8.69189 3.49984 10.4901C3.49984 12.2884 4.13525 13.823 5.40609 15.0938C6.67692 16.3647 8.2115 17.0001 10.0098 17.0001Z" fill="#1C1B1F"/>
</g>
</svg>
