<svg width="65" height="65" viewBox="0 0 65 65" fill="none" xmlns="http://www.w3.org/2000/svg">
<rect width="65" height="65" rx="32.5" fill="#88AACB"/>
<path d="M42 33.25C42.6904 33.25 43.25 32.6904 43.25 32C43.25 31.3096 42.6904 30.75 42 30.75L42 32L42 33.25ZM21.1161 31.1161C20.628 31.6043 20.628 32.3957 21.1161 32.8839L29.0711 40.8388C29.5592 41.327 30.3507 41.327 30.8388 40.8388C31.327 40.3507 31.327 39.5592 30.8388 39.0711L23.7678 32L30.8388 24.9289C31.327 24.4408 31.327 23.6493 30.8388 23.1612C30.3507 22.673 29.5592 22.673 29.0711 23.1612L21.1161 31.1161ZM42 32L42 30.75L22 30.75L22 32L22 33.25L42 33.25L42 32Z" fill="white"/>
</svg>
