<svg width="20" height="21" viewBox="0 0 20 21" fill="none" xmlns="http://www.w3.org/2000/svg">
<mask id="mask0_2_174" style="mask-type:alpha" maskUnits="userSpaceOnUse" x="0" y="0" width="20" height="21">
<rect y="0.5" width="20" height="20" fill="#D9D9D9"/>
</mask>
<g mask="url(#mask0_2_174)">
<path d="M2.81426 15.5496C2.69884 15.4343 2.63766 15.3067 2.63072 15.1667C2.62377 15.0267 2.67801 14.899 2.79343 14.7838L6.87197 10.7131C7.13155 10.4481 7.44565 10.3156 7.81426 10.3156C8.18273 10.3156 8.49947 10.4481 8.76447 10.7131L10.8045 12.7452C10.8527 12.7933 10.9115 12.8173 10.9809 12.8173C11.0504 12.8173 11.1118 12.7933 11.1651 12.7452L15.7422 8.1971H13.5418C13.388 8.1971 13.2593 8.14571 13.1557 8.04294C13.052 7.94002 13.0001 7.81231 13.0001 7.65981C13.0001 7.50731 13.052 7.37821 13.1557 7.27252C13.2593 7.16669 13.388 7.11377 13.5418 7.11377H16.9134C17.1047 7.11377 17.2641 7.17766 17.3918 7.30544C17.5195 7.43321 17.5834 7.59266 17.5834 7.78377V11.1554C17.5834 11.3092 17.532 11.4379 17.4291 11.5417C17.3263 11.6453 17.1986 11.6971 17.0461 11.6971C16.8936 11.6971 16.7645 11.6486 16.6588 11.5517C16.553 11.4546 16.5001 11.3322 16.5001 11.1844V8.97106L11.9232 13.5481C11.6635 13.8077 11.3494 13.9375 10.9809 13.9375C10.6123 13.9375 10.2982 13.8077 10.0386 13.5481L7.99843 11.4871C7.95037 11.439 7.88898 11.415 7.81426 11.415C7.7394 11.415 7.67794 11.439 7.62989 11.4871L3.58822 15.5496C3.46752 15.6704 3.3385 15.7309 3.20113 15.7309C3.06391 15.7309 2.93495 15.6704 2.81426 15.5496Z" fill="#1C1B1F"/>
</g>
</svg>
