<svg width="187" height="89" viewBox="0 0 187 89" fill="none" xmlns="http://www.w3.org/2000/svg">
<path d="M83.6279 0V19.9368H92.0761V38.0611H83.6279V60.8596H61.3208V0H83.6279ZM17.9406 89V55.2315H40.0579V70.5895H84.5772V89H17.9406ZM3.13249 33.7685H8.92284V18.5059H3.70203L0.284772 1.43087H56.3848V18.5059H28.3822V33.7685H33.0335V21.8446H52.0183V33.7685H56.3848V49.8896H0L3.13249 33.7685Z" fill="#4175F9"/>
<path d="M149.885 1.43087V21.6538H125.679L122.262 45.8832H150.929V66.1061H96.1579L105.935 1.43087H149.885ZM178.077 0V23.7524H187V43.7846H178.077V75.6452H155.77V0H178.077Z" fill="#4175F9"/>
</svg>
