<svg width="24" height="24" viewBox="0 0 24 24" fill="none" xmlns="http://www.w3.org/2000/svg">
<path d="M12 11.2C10.46 11.2 9.14173 10.6517 8.0452 9.5552C6.9484 8.4584 6.4 7.14 6.4 5.6C6.4 4.06 6.9484 2.74173 8.0452 1.6452C9.14173 0.5484 10.46 0 12 0C13.54 0 14.8583 0.5484 15.9548 1.6452C17.0516 2.74173 17.6 4.06 17.6 5.6C17.6 7.14 17.0516 8.4584 15.9548 9.5552C14.8583 10.6517 13.54 11.2 12 11.2ZM0 23.3848V19.8276C0 19.0441 0.2128 18.3185 0.6384 17.6508C1.064 16.9831 1.6328 16.4697 2.3448 16.1108C3.92613 15.3356 5.52147 14.7541 7.1308 14.3664C8.74013 13.9787 10.3632 13.7848 12 13.7848C13.6368 13.7848 15.2599 13.9787 16.8692 14.3664C18.4785 14.7541 20.0739 15.3356 21.6552 16.1108C22.3672 16.4697 22.936 16.9831 23.3616 17.6508C23.7872 18.3185 24 19.0441 24 19.8276V23.3848H0Z" fill="white"/>
<path d="M12 11.2C10.46 11.2 9.14173 10.6517 8.0452 9.5552C6.9484 8.4584 6.4 7.14 6.4 5.6C6.4 4.06 6.9484 2.74173 8.0452 1.6452C9.14173 0.5484 10.46 0 12 0C13.54 0 14.8583 0.5484 15.9548 1.6452C17.0516 2.74173 17.6 4.06 17.6 5.6C17.6 7.14 17.0516 8.4584 15.9548 9.5552C14.8583 10.6517 13.54 11.2 12 11.2ZM0 23.3848V19.8276C0 19.0441 0.2128 18.3185 0.6384 17.6508C1.064 16.9831 1.6328 16.4697 2.3448 16.1108C3.92613 15.3356 5.52147 14.7541 7.1308 14.3664C8.74013 13.9787 10.3632 13.7848 12 13.7848C13.6368 13.7848 15.2599 13.9787 16.8692 14.3664C18.4785 14.7541 20.0739 15.3356 21.6552 16.1108C22.3672 16.4697 22.936 16.9831 23.3616 17.6508C23.7872 18.3185 24 19.0441 24 19.8276V23.3848H0Z" fill="white"/>
<path d="M12 11.2C10.46 11.2 9.14173 10.6517 8.0452 9.5552C6.9484 8.4584 6.4 7.14 6.4 5.6C6.4 4.06 6.9484 2.74173 8.0452 1.6452C9.14173 0.5484 10.46 0 12 0C13.54 0 14.8583 0.5484 15.9548 1.6452C17.0516 2.74173 17.6 4.06 17.6 5.6C17.6 7.14 17.0516 8.4584 15.9548 9.5552C14.8583 10.6517 13.54 11.2 12 11.2ZM0 23.3848V19.8276C0 19.0441 0.2128 18.3185 0.6384 17.6508C1.064 16.9831 1.6328 16.4697 2.3448 16.1108C3.92613 15.3356 5.52147 14.7541 7.1308 14.3664C8.74013 13.9787 10.3632 13.7848 12 13.7848C13.6368 13.7848 15.2599 13.9787 16.8692 14.3664C18.4785 14.7541 20.0739 15.3356 21.6552 16.1108C22.3672 16.4697 22.936 16.9831 23.3616 17.6508C23.7872 18.3185 24 19.0441 24 19.8276V23.3848H0Z" fill="white"/>
<path d="M12 11.2C10.46 11.2 9.14173 10.6517 8.0452 9.5552C6.9484 8.4584 6.4 7.14 6.4 5.6C6.4 4.06 6.9484 2.74173 8.0452 1.6452C9.14173 0.5484 10.46 0 12 0C13.54 0 14.8583 0.5484 15.9548 1.6452C17.0516 2.74173 17.6 4.06 17.6 5.6C17.6 7.14 17.0516 8.4584 15.9548 9.5552C14.8583 10.6517 13.54 11.2 12 11.2ZM0 23.3848V19.8276C0 19.0441 0.2128 18.3185 0.6384 17.6508C1.064 16.9831 1.6328 16.4697 2.3448 16.1108C3.92613 15.3356 5.52147 14.7541 7.1308 14.3664C8.74013 13.9787 10.3632 13.7848 12 13.7848C13.6368 13.7848 15.2599 13.9787 16.8692 14.3664C18.4785 14.7541 20.0739 15.3356 21.6552 16.1108C22.3672 16.4697 22.936 16.9831 23.3616 17.6508C23.7872 18.3185 24 19.0441 24 19.8276V23.3848H0Z" fill="white"/>
<path d="M12 11.2C10.46 11.2 9.14173 10.6517 8.0452 9.5552C6.9484 8.4584 6.4 7.14 6.4 5.6C6.4 4.06 6.9484 2.74173 8.0452 1.6452C9.14173 0.5484 10.46 0 12 0C13.54 0 14.8583 0.5484 15.9548 1.6452C17.0516 2.74173 17.6 4.06 17.6 5.6C17.6 7.14 17.0516 8.4584 15.9548 9.5552C14.8583 10.6517 13.54 11.2 12 11.2ZM0 23.3848V19.8276C0 19.0441 0.2128 18.3185 0.6384 17.6508C1.064 16.9831 1.6328 16.4697 2.3448 16.1108C3.92613 15.3356 5.52147 14.7541 7.1308 14.3664C8.74013 13.9787 10.3632 13.7848 12 13.7848C13.6368 13.7848 15.2599 13.9787 16.8692 14.3664C18.4785 14.7541 20.0739 15.3356 21.6552 16.1108C22.3672 16.4697 22.936 16.9831 23.3616 17.6508C23.7872 18.3185 24 19.0441 24 19.8276V23.3848H0Z" fill="white"/>
<path d="M12 11.2C10.46 11.2 9.14173 10.6517 8.0452 9.5552C6.9484 8.4584 6.4 7.14 6.4 5.6C6.4 4.06 6.9484 2.74173 8.0452 1.6452C9.14173 0.5484 10.46 0 12 0C13.54 0 14.8583 0.5484 15.9548 1.6452C17.0516 2.74173 17.6 4.06 17.6 5.6C17.6 7.14 17.0516 8.4584 15.9548 9.5552C14.8583 10.6517 13.54 11.2 12 11.2ZM0 23.3848V19.8276C0 19.0441 0.2128 18.3185 0.6384 17.6508C1.064 16.9831 1.6328 16.4697 2.3448 16.1108C3.92613 15.3356 5.52147 14.7541 7.1308 14.3664C8.74013 13.9787 10.3632 13.7848 12 13.7848C13.6368 13.7848 15.2599 13.9787 16.8692 14.3664C18.4785 14.7541 20.0739 15.3356 21.6552 16.1108C22.3672 16.4697 22.936 16.9831 23.3616 17.6508C23.7872 18.3185 24 19.0441 24 19.8276V23.3848H0Z" fill="white"/>
<path d="M12 11.2C10.46 11.2 9.14173 10.6517 8.0452 9.5552C6.9484 8.4584 6.4 7.14 6.4 5.6C6.4 4.06 6.9484 2.74173 8.0452 1.6452C9.14173 0.5484 10.46 0 12 0C13.54 0 14.8583 0.5484 15.9548 1.6452C17.0516 2.74173 17.6 4.06 17.6 5.6C17.6 7.14 17.0516 8.4584 15.9548 9.5552C14.8583 10.6517 13.54 11.2 12 11.2ZM0 23.3848V19.8276C0 19.0441 0.2128 18.3185 0.6384 17.6508C1.064 16.9831 1.6328 16.4697 2.3448 16.1108C3.92613 15.3356 5.52147 14.7541 7.1308 14.3664C8.74013 13.9787 10.3632 13.7848 12 13.7848C13.6368 13.7848 15.2599 13.9787 16.8692 14.3664C18.4785 14.7541 20.0739 15.3356 21.6552 16.1108C22.3672 16.4697 22.936 16.9831 23.3616 17.6508C23.7872 18.3185 24 19.0441 24 19.8276V23.3848H0Z" fill="white"/>
<path d="M12 11.2C10.46 11.2 9.14173 10.6517 8.0452 9.5552C6.9484 8.4584 6.4 7.14 6.4 5.6C6.4 4.06 6.9484 2.74173 8.0452 1.6452C9.14173 0.5484 10.46 0 12 0C13.54 0 14.8583 0.5484 15.9548 1.6452C17.0516 2.74173 17.6 4.06 17.6 5.6C17.6 7.14 17.0516 8.4584 15.9548 9.5552C14.8583 10.6517 13.54 11.2 12 11.2ZM0 23.3848V19.8276C0 19.0441 0.2128 18.3185 0.6384 17.6508C1.064 16.9831 1.6328 16.4697 2.3448 16.1108C3.92613 15.3356 5.52147 14.7541 7.1308 14.3664C8.74013 13.9787 10.3632 13.7848 12 13.7848C13.6368 13.7848 15.2599 13.9787 16.8692 14.3664C18.4785 14.7541 20.0739 15.3356 21.6552 16.1108C22.3672 16.4697 22.936 16.9831 23.3616 17.6508C23.7872 18.3185 24 19.0441 24 19.8276V23.3848H0Z" fill="white"/>
</svg>
